<?xml version="1.0" standalone="no"?>
<!DOCTYPE svg PUBLIC "-//W3C//DTD SVG 20010904//EN"
 "http://www.w3.org/TR/2001/REC-SVG-20010904/DTD/svg10.dtd">
<svg version="1.0" xmlns="http://www.w3.org/2000/svg"
 width="499.000000pt" height="500.000000pt" viewBox="0 0 499.000000 500.000000"
 preserveAspectRatio="xMidYMid meet">

<g transform="translate(0.000000,500.000000) scale(0.100000,-0.100000)"
fill="#000000" stroke="none">
<path d="M3300 3204 c-109 -29 -201 -101 -254 -198 -47 -86 -59 -141 -54 -240
4 -69 10 -96 36 -149 84 -170 240 -259 427 -244 171 15 342 166 371 330 6 38
6 38 -22 31 -37 -9 -35 -6 -23 -40 10 -24 8 -37 -12 -79 -30 -65 -110 -144
-179 -178 -259 -125 -560 46 -578 328 -4 70 11 165 27 165 4 0 12 -24 18 -52
15 -71 31 -110 42 -104 5 3 0 33 -10 67 -22 70 -24 133 -6 168 17 33 104 80
189 102 99 26 134 25 163 -6 14 -16 26 -22 30 -16 3 6 -5 22 -19 36 -30 30
-90 33 -176 10 -107 -28 -106 -28 -95 -17 21 22 112 61 169 71 108 20 231 -14
327 -90 33 -26 37 -33 27 -49 -14 -22 -50 -40 -79 -40 -12 0 -17 -4 -13 -11
10 -17 73 -3 100 22 l23 22 18 -32 c24 -42 50 -43 28 0 -80 154 -294 241 -475
193z"/>
<path d="M3414 3030 c-12 -5 -24 -12 -27 -17 -3 -5 24 -44 59 -87 36 -44 63
-84 61 -89 -1 -5 -58 -32 -126 -59 l-124 -49 -32 31 -32 31 -26 -22 -27 -21
32 -60 c17 -33 37 -62 43 -64 17 -7 708 184 717 198 23 37 -20 87 -92 109 -33
10 -47 9 -103 -11 l-65 -23 -54 39 c-29 21 -72 53 -96 71 -44 33 -70 39 -108
23z m141 -77 l90 -66 -40 -18 c-22 -10 -47 -18 -55 -18 -8 0 -41 32 -73 72
-52 65 -56 73 -40 85 9 6 19 12 22 12 3 0 46 -30 96 -67z m315 -58 c16 -8 34
-24 40 -35 13 -24 0 -32 -90 -55 -36 -9 -179 -48 -318 -86 -140 -38 -261 -69
-270 -69 -23 0 -69 87 -54 102 8 8 19 4 42 -16 17 -14 37 -26 43 -26 7 0 122
45 257 100 254 102 296 113 350 85z"/>
<path d="M2665 3010 c-9 -15 2 -111 21 -178 19 -69 40 -65 36 7 -2 28 0 51 4
51 4 0 32 -18 61 -41 49 -37 83 -45 83 -20 0 5 -27 31 -60 56 -33 25 -60 50
-60 54 0 4 13 20 30 36 27 26 31 45 10 45 -5 0 -22 -11 -38 -25 -37 -31 -50
-31 -54 -3 -3 24 -23 35 -33 18z"/>
<path d="M2015 2959 c-71 -62 -86 -142 -39 -198 23 -28 32 -31 79 -31 46 0 56
4 75 27 25 32 10 45 -20 18 -15 -13 -29 -16 -57 -12 -46 8 -63 29 -63 77 0 39
19 66 75 106 17 12 26 25 21 32 -12 20 -33 14 -71 -19z"/>
<path d="M1211 2970 c-65 -10 -131 -38 -131 -57 0 -16 32 -17 47 -2 7 7 18 9
26 6 11 -4 15 -38 20 -147 3 -78 8 -144 11 -147 3 -3 12 -3 21 0 13 6 14 26 9
151 l-7 145 29 12 c48 19 59 26 57 35 -3 12 -19 13 -82 4z"/>
<path d="M2263 2958 c-6 -7 -18 -28 -28 -47 -18 -35 -31 -32 -37 9 -2 14 -10
25 -18 25 -12 0 -15 -14 -13 -75 3 -97 9 -122 31 -118 11 2 19 17 24 45 4 23
12 52 19 64 11 22 12 22 25 4 8 -10 14 -39 14 -63 0 -35 3 -43 16 -40 11 2 23
25 34 66 32 117 53 110 58 -19 3 -64 8 -89 17 -89 18 0 25 24 25 88 -1 67 -14
140 -27 153 -14 14 -37 2 -57 -31 -22 -38 -31 -38 -42 2 -10 35 -26 45 -41 26z"/>
<path d="M2470 2961 c0 -21 21 -119 31 -143 14 -35 42 -36 63 -3 9 14 21 25
26 25 6 0 10 -11 10 -25 0 -16 6 -25 16 -25 14 0 15 10 9 78 -10 115 -28 122
-60 24 -19 -61 -36 -63 -47 -6 -15 75 -18 84 -33 84 -8 0 -15 -4 -15 -9z"/>
<path d="M3277 2906 c-88 -69 -95 -76 -75 -76 16 0 167 110 168 123 0 17 -29
2 -93 -47z"/>
<path d="M1557 2913 c-10 -10 -8 -232 3 -277 10 -43 32 -72 49 -62 8 5 6 16
-4 36 -9 16 -18 50 -21 75 l-7 45 49 21 c65 27 84 46 84 81 0 24 -6 32 -35 44
-19 7 -44 14 -55 14 -11 0 -23 7 -26 15 -6 16 -26 20 -37 8z m111 -85 c2 -18
-4 -31 -20 -42 -47 -33 -79 -7 -58 48 8 23 15 27 42 24 27 -2 34 -8 36 -30z"/>
<path d="M1464 2854 c-14 -31 -28 -53 -32 -49 -4 3 -11 25 -17 48 -7 28 -16
43 -29 45 -17 4 -18 -1 -13 -45 3 -26 13 -69 22 -93 26 -69 30 -116 11 -145
-13 -20 -22 -24 -41 -19 -29 7 -35 -15 -11 -36 47 -38 101 35 112 150 4 36 17
91 30 122 28 67 29 78 8 78 -9 0 -25 -23 -40 -56z"/>
<path d="M1748 2885 c-7 -8 11 -103 27 -142 17 -39 39 -42 61 -8 9 14 20 25
25 25 5 0 9 -11 9 -25 0 -26 24 -35 32 -12 3 6 1 45 -5 85 -12 89 -29 93 -54
15 -28 -88 -44 -83 -58 20 -6 42 -20 59 -37 42z"/>
<path d="M3654 2671 c-62 -110 -84 -125 -84 -56 0 33 -4 45 -12 42 -18 -6 -16
-96 2 -107 26 -16 66 17 94 76 30 62 30 98 0 45z"/>
<path d="M2330 2612 c-20 -10 -47 -37 -65 -66 -27 -44 -30 -58 -30 -125 1 -97
24 -148 78 -175 33 -16 45 -17 77 -7 59 18 79 40 95 106 18 76 18 72 -5 85
-14 8 -29 7 -55 -4 -40 -17 -44 -30 -15 -46 38 -20 13 -100 -31 -100 -32 0
-76 51 -84 98 -8 52 10 143 36 176 17 22 28 26 74 26 58 0 79 15 50 37 -26 18
-83 16 -125 -5z"/>
<path d="M2621 2593 c-43 -21 -88 -83 -96 -133 -18 -109 104 -189 196 -127 93
61 91 200 -3 257 -40 24 -53 24 -97 3z m97 -80 c17 -23 15 -94 -4 -121 -23
-34 -49 -44 -78 -31 -50 23 -57 99 -14 154 17 22 26 26 52 21 17 -4 37 -14 44
-23z"/>
<path d="M3332 2603 c-7 -3 -23 -21 -37 -41 l-24 -35 -12 26 c-26 57 -38 21
-15 -43 15 -42 37 -45 47 -7 4 16 20 44 34 63 28 36 29 45 7 37z"/>
</g>
</svg>
